<?xml version="1.0" standalone="no"?><!DOCTYPE svg PUBLIC "-//W3C//DTD SVG 1.1//EN" "http://www.w3.org/Graphics/SVG/1.1/DTD/svg11.dtd"><svg t="1747980333235" class="icon" viewBox="0 0 1024 1024" version="1.1" xmlns="http://www.w3.org/2000/svg" p-id="3765" xmlns:xlink="http://www.w3.org/1999/xlink" width="32" height="32"><path d="M259.721 872.396v-740h277.656c56.531 0 101.891 7.484 136.047 22.453s60.906 38 80.266 69.094c19.344 31.109 29.031 63.641 29.031 97.594 0 31.609-8.547 61.375-25.641 89.281s-42.906 50.438-77.438 67.578c44.672 13.141 79.016 35.531 103.047 67.188 24.016 31.656 36.031 69.047 36.031 112.141 0 34.688-7.328 66.922-21.969 96.719-14.656 29.813-32.75 52.797-54.281 68.953-21.547 16.172-48.563 28.375-81.047 36.625-32.5 8.25-72.297 12.375-119.422 12.375h-282.28z m98-429h160.203c43.453 0 74.625-2.859 93.5-8.594 24.922-7.406 43.703-19.719 56.344-36.906 12.625-17.188 18.953-38.766 18.953-64.734 0-24.594-5.906-46.25-17.688-64.969-11.797-18.703-28.641-31.516-50.547-38.422s-59.469-10.375-112.688-10.375H357.721v224z m0 342h184.546c31.688 0 53.938-1.172 66.75-3.547 22.578-4.031 41.453-10.781 56.625-20.234 15.156-9.438 27.625-23.188 37.406-41.234 9.781-18.031 14.672-38.859 14.672-62.484 0-27.656-7.109-51.688-21.313-72.094-14.219-20.406-33.875-34.734-58.969-43s-61.234-12.406-108.391-12.406H357.721v254.999z" p-id="3766" fill="#ffffff"></path></svg>