<?xml version="1.0" standalone="no"?><!DOCTYPE svg PUBLIC "-//W3C//DTD SVG 1.1//EN" "http://www.w3.org/Graphics/SVG/1.1/DTD/svg11.dtd"><svg t="1750989449037" class="icon" viewBox="0 0 1024 1024" version="1.1" xmlns="http://www.w3.org/2000/svg" p-id="4916" xmlns:xlink="http://www.w3.org/1999/xlink" width="32" height="32"><path d="M1020.102752 526.640822a39.383173 39.383173 0 0 0-8.524496-42.878216L893.599228 365.868823a39.297928 39.297928 0 1 0-55.664961 55.579715l50.891243 50.891243H550.999722V134.428749l50.805998 50.891243a39.212683 39.212683 0 0 0 55.664961 0 39.297928 39.297928 0 0 0 0-55.664961L539.491652 11.676003a39.212683 39.212683 0 0 0-55.66496 0L365.762418 129.655031a39.297928 39.297928 0 1 0 55.664961 55.664961l50.891243-50.891243v337.825787H134.40759l50.891242-50.891243a39.297928 39.297928 0 1 0-55.579715-55.579715L11.654843 483.762606a39.468418 39.468418 0 0 0 0 55.664961L129.719117 657.49184a39.212683 39.212683 0 0 0 55.579715 0 39.297928 39.297928 0 0 0 0-55.664961l-50.891242-50.891242H472.403867v337.825787l-50.891243-50.891243a39.297928 39.297928 0 1 0-55.664961 55.664961l117.979029 117.979028a39.212683 39.212683 0 0 0 55.750205 0L657.385436 893.535142a39.297928 39.297928 0 1 0-55.579716-55.664961l-50.891243 50.891243V550.935637h337.825788l-50.891243 50.891242a39.297928 39.297928 0 1 0 55.664961 55.664961l117.979028-118.064273a39.297928 39.297928 0 0 0 8.524496-12.786745z" p-id="4917" fill="#707070"></path></svg>