<?xml version="1.0" standalone="no"?><!DOCTYPE svg PUBLIC "-//W3C//DTD SVG 1.1//EN" "http://www.w3.org/Graphics/SVG/1.1/DTD/svg11.dtd"><svg t="1747189433203" class="icon" viewBox="0 0 1024 1024" version="1.1" xmlns="http://www.w3.org/2000/svg" p-id="5560" width="32" height="32" xmlns:xlink="http://www.w3.org/1999/xlink"><path d="M822.869333 109.710222H201.102222a9.159111 9.159111 0 0 0-9.130666 9.130667v146.289778c0 5.034667 4.124444 9.159111 9.130666 9.159111h64a9.159111 9.159111 0 0 0 9.159111-9.159111V192h192v640h-105.159111a9.159111 9.159111 0 0 0-9.130666 9.130667v64c0 5.034667 4.124444 9.159111 9.130666 9.159111h301.738667a9.159111 9.159111 0 0 0 9.130667-9.159111v-64a9.159111 9.159111 0 0 0-9.130667-9.130667h-105.159111V192h192V265.102222c0 5.034667 4.124444 9.159111 9.159111 9.159111h64a9.159111 9.159111 0 0 0 9.130667-9.159111V118.840889a9.159111 9.159111 0 0 0-9.130667-9.130667z" p-id="5561" fill="#ffffff"></path></svg>