<?xml version="1.0" standalone="no"?><!DOCTYPE svg PUBLIC "-//W3C//DTD SVG 1.1//EN" "http://www.w3.org/Graphics/SVG/1.1/DTD/svg11.dtd"><svg t="1747980366391" class="icon" viewBox="0 0 1024 1024" version="1.1" xmlns="http://www.w3.org/2000/svg" p-id="4929" xmlns:xlink="http://www.w3.org/1999/xlink" width="32" height="32"><path d="M716.721 112.436h98v384.016c0 66.813-8.438 119.859-25.281 159.141-16.859 39.297-47.281 71.266-91.266 95.891-44 24.641-101.719 36.953-173.188 36.953-69.437 0-126.25-10.734-170.406-32.188s-75.672-52.516-94.547-93.172-28.313-96.188-28.313-166.625V112.436h98v383.781c0 57.781 5.984 100.344 17.953 127.719s32.547 48.469 61.719 63.281 64.844 22.219 107 22.219c72.156 0 123.594-14.656 154.281-44 30.688-29.328 46.047-85.734 46.047-169.219V112.436z" p-id="4930" fill="#ffffff"></path><path d="M242 850.364h574v61.459H242z" p-id="4931" fill="#ffffff"></path></svg>